<svg height="100%" viewBox="0 0 125 38" width="100%">
  <linearGradient id="x">
    <stop offset="0%" style="stop-color:#820ec9" />
    <stop offset="50%" style="stop-color:#df263d" />
    <stop offset="100%" style="stop-color:#dd9732" />
  </linearGradient>
  <path
    d="M125 36.391V1.61C125 .72 124.28 0 123.394 0h-6.46c-.887 0-1.607.72-1.607 1.609v20.2l-2.453-2.76-5.204-5.854a1.702 1.702 0 0 0-2.543 0l-5.204 5.854-2.453 2.76-9.672 10.073v4.509c0 .888.72 1.609 1.606 1.609h6.098l.872-.391 1.096-1.233 8.112-9.125c.435-.49 1.2-.49 1.634 0l8.111 9.125 1.097 1.233.871.391h6.099c.887 0 1.606-.72 1.606-1.609M97.47 9.686V1.61C97.47.72 96.75 0 95.864 0h-6.46c-.887 0-1.606.72-1.606 1.609v17.764l9.672-9.687M44.643 1.61V36.39c0 .888.72 1.609 1.606 1.609h6.46c.887 0 1.606-.72 1.606-1.609v-20.2l2.454 2.76 5.203 5.854a1.701 1.701 0 0 0 2.544 0l5.203-5.853 2.454-2.76 9.672-10.074V1.609C81.845.72 81.125 0 80.24 0H74.14l-.872.392-1.096 1.233-8.112 9.124c-.435.49-1.2.49-1.634 0l-8.112-9.124L53.22.392 52.347 0H46.25c-.887 0-1.606.72-1.606 1.609m27.53 26.705v8.077c0 .888.72 1.609 1.606 1.609h6.46c.887 0 1.606-.72 1.606-1.609V18.627l-9.672 9.687M36.34.745H1.606C.72.745 0 1.465 0 2.354v6.469c0 .888.72 1.608 1.606 1.608h20.172l-2.756 2.457-5.846 5.211a1.708 1.708 0 0 0 0 2.547l5.846 5.211 2.756 2.457L31.838 38h4.502c.887 0 1.606-.72 1.606-1.609v-6.106l-.39-.872-1.232-1.1-9.111-8.122a1.096 1.096 0 0 1 0-1.636l9.11-8.124 1.233-1.098.39-.872V2.353c0-.887-.72-1.608-1.606-1.608M9.673 28.314L19.345 38H1.606C.72 38 0 37.28 0 36.391v-6.469c0-.888.72-1.608 1.606-1.608h8.067"
    fill="url(#x)"
  />
</svg>
