<svg viewBox="0 0 8.8964996 9.1888847">
  <linearGradient id="x">
    <stop offset="0%" style="stop-color:#262857" />
    <stop offset="50%" style="stop-color:#266bff" />
    <stop offset="100%" style="stop-color:#7ac245" />
  </linearGradient>
  <path
    fill="url(#x)"
    d="M 7.08839,4.778597 5.38527,6.1295255 A 1.2810696,1.0082104 0 0 1 4.47107,6.4299968 1.2801748,1.0075062 0 0 1 3.55687,6.1295255 L 1.83108,4.7609916 1.80868,4.7786206 0.24336,6.0201631 1.96915,7.388697 a 3.500795,2.7551493 0 0 0 2.50189,0.8215957 c 0.94492,0 1.83347,-0.2915467 2.50159,-0.8215957 l 1.70312,-1.3506925 -0.001,-0.00157 z"
  >
    <animate
      fill="freeze"
      begin="1s"
      dur="1s"
      repeatCount="1"
      attributeName="d"
      to="m 7.08839,4.828436 -1.70312,1.71654 a 1.2810696,1.2810696 0 0 1 -0.9142,0.38179 1.2801748,1.2801748 0 0 1 -0.9142,-0.38179 l -1.72579,-1.73891 -0.0224,0.0224 -1.56532,1.57755 1.72579,1.73891 a 3.500795,3.500795 0 0 0 2.50189,1.04395 c 0.94492,0 1.83347,-0.37045 2.50159,-1.04395 l 1.70312,-1.71624 -0.001,-0.002 z"
    />
  </path>
  <path
    fill="url(#x)"
    d="m 1.80871,4.426018 6e-4,7.004e-4 1.72549,-1.3685339 a 1.2849472,1.0112621 0 0 1 0.9145,-0.299763 c 0.33108,0 0.66216,0.099761 0.91419,0.2995269 l 1.7249,1.3680696 1.5859,-1.2582113 0.001,-7.87e-4 -1.7246,-1.3675974 A 3.5139189,2.7654779 0 0 0 4.54574,0.97970752 3.5139189,2.7654779 0 0 0 1.94722,1.7994223 l -1.72609,1.3685339 8.9e-4,2.361e-4 z"
  >
    <animate
      fill="freeze"
      begin="1s"
      dur="1s"
      repeatCount="1"
      attributeName="d"
      to="m 1.80871,4.380436 6e-4,8.9e-4 1.72549,-1.73891 a 1.2849472,1.2849472 0 0 1 0.9145,-0.38089 c 0.33108,0 0.66216,0.12676 0.91419,0.38059 l 1.7249,1.73832 1.5859,-1.59873 0.001,-10e-4 -1.7246,-1.73772 A 3.5139189,3.5139189 0 0 0 4.54574,0.00142597 3.5139189,3.5139189 0 0 0 1.94722,1.042986 l -1.72609,1.73891 8.9e-4,3e-4 z"
    />
  </path>
  <path
    fill="url(#x)"
    d="M 8.8965,5.8602827 V 3.3448045 L 7.3103,4.6025436 Z M 0,3.3445684 V 5.8602827 L 1.5862,4.6023075 Z"
  >
    <animate
      fill="freeze"
      begin="1s"
      dur="1s"
      repeatCount="1"
      attributeName="d"
      to="M 8.8965,6.202866 V 3.006606 L 7.3103,4.604736 Z M 0,3.006306 v 3.19656 l 1.5862,-1.59843 z"
    />
  </path>
</svg>
