<svg id="sinqia" viewBox="0 0 585.85858 184.26559" fill="#fa4616">
  <path
    d="M 45.066408,2.1285529e-4 C 37.183522,-0.01944714 29.552499,1.3226829 23.037111,4.0705259 13.018516,8.2958369 5.953971,16.15381 3.263674,26.066619 2.173571,30.083227 2.161085,40.250986 3.240234,44.289276 c 2.367027,8.857648 8.119246,15.453568 17.423828,19.980468 5.511343,2.68139 10.138053,4.155177 23.72461,7.560547 15.808796,3.96237 20.991816,5.99269 25.197266,9.86914 6.39094,5.89096 5.23227,19.750159 -2.27929,27.261719 -6.21839,6.21839 -16.991727,9.45881 -29.753914,8.94922 C 27.58172,117.51223 20.765878,115.81059 12.058593,111.54904 7.908829,109.51805 6.7307,109.12328 5.455078,109.33029 2.277317,109.84597 0,112.47137 0,115.62131 c 0,3.56832 2.190648,5.58707 9.521484,8.77148 6.521738,2.83294 14.737431,4.92654 22.142578,5.64258 20.60669,1.99255 38.966936,-4.04502 47.724616,-15.69531 2.77137,-3.68672 4.83037,-7.91323 6.01953,-12.34961 0.79655,-2.971669 0.99228,-4.884879 0.98828,-9.701169 -0.004,-5.38104 -0.1281,-6.36234 -1.21875,-9.50781 -3.0948,-8.92552 -10.00705,-14.81411 -22.44727,-19.123055 -2.52991,-0.87629 -9.413982,-2.809255 -15.296875,-4.296875 C 31.04259,55.216701 24.442456,52.55347 20.195314,48.375213 c -4.253276,-4.184289 -6.02434,-11.0058 -4.662109,-17.957031 1.674058,-8.542444 8.463553,-14.964416 18.019531,-17.044922 11.048844,-2.405529 25.047162,-0.578867 36.167972,4.71875 4.88672,2.327889 6.77238,2.65263 8.92578,1.539062 2.16842,-1.121334 3.12891,-2.748032 3.12891,-5.302734 0,-3.640329 -0.99061,-4.7301011 -6.89063,-7.5937501 C 65.752468,2.3021109 55.201547,0.02549286 45.066408,2.1285529e-4 Z M 218.84961,0.00411286 c -1.54107,0.0078 -3.04455,0.0893 -4.47265,0.25 C 193.85379,2.5634879 177.60878,16.530714 172.0918,36.609588 l -1.19531,4.345703 -0.13086,42.2461 -0.13086,42.246089 1.02344,1.53125 c 0.56303,0.84269 1.71963,1.88119 2.57031,2.30859 0.85068,0.42739 2.0027,0.77891 2.56055,0.7793 1.5297,0.001 3.74137,-1.07295 4.98633,-2.42187 l 1.10937,-1.20508 0.23828,-41.630859 c 0.1376,-24.227387 0.20354,-34.232675 0.42774,-39.179692 0.0305,-0.6429 0.0648,-1.211598 0.10156,-1.767578 0.15131,-2.058737 0.35658,-2.999577 0.66797,-4.107422 2.89553,-10.301737 9.80634,-18.762097 19.00976,-23.27539 5.36036,-2.62868 8.32835,-3.362338 14.66602,-3.621094 4.4375,-0.181169 6.00585,-0.0581 9.33398,0.734375 15.2438,3.629773 26.00512,15.957159 27.76953,31.808594 0.2625,2.358311 0.44722,19.650329 0.44922,42.132817 0.002,17.992139 -0.0307,27.860209 0.1836,33.449219 0.063,2.12507 0.14956,3.42805 0.26367,4.19922 v 0.97461 l 0.22461,0.2246 c 0.45975,2.14019 1.23154,2.17778 2.5293,2.83985 3.24569,1.65583 6.79984,0.50611 8.47851,-2.74219 0.74069,-1.43326 0.77949,-4.00949 0.63477,-43.300779 -0.1678,-45.560495 -0.0436,-43.267285 -2.78125,-50.892582 -5.27923,-14.704493 -17.38705,-26.0719971 -32.4043,-30.4238281 -4.24675,-1.23065504 -9.2049,-1.88076104 -13.82813,-1.85742204 z m 321.92774,0.002 c -8.77716,-0.07219 -17.94761,1.30439904 -26.85742,4.07617204 -9.6848,3.012876 -16.70691,6.5882761 -18.13086,9.2324221 -1.11772,2.075471 -0.77002,5.681061 0.69922,7.253906 2.75782,2.952204 4.92508,3.041954 10.33984,0.429688 15.66373,-7.556715 33.89267,-9.96479 46.92774,-6.197266 11.94088,3.451276 18.5619,12.097597 18.78906,24.535156 0.0788,4.311422 -0.53516,6.097151 -2.88672,8.400391 -3.956,3.874735 -9.86843,5.662321 -29.74024,8.988281 -26.5528,4.44419 -34.77056,7.369256 -42.94726,15.291018 -3.39668,3.29073 -5.39023,6.45069 -7.04297,11.16602 -1.16454,3.32269 -1.24228,4.00873 -1.23828,10.66211 0.005,7.914059 0.49931,10.508509 3.05664,15.999999 5.31711,11.41773 17.06007,18.48533 33.58789,20.21484 5.45217,0.57052 15.0799,0.17174 19.77344,-0.81836 9.31646,-1.96528 17.0261,-5.94369 23.56836,-12.16406 2.24419,-2.13375 4.20936,-3.75158 4.36718,-3.59375 0.15787,0.15783 0.28711,3.04695 0.28711,6.41992 v 6.13281 l 1.35547,1.54492 c 3.11329,3.54585 8.31662,3.00408 10.43164,-1.08593 0.99935,-1.93296 0.98341,-89.111444 -0.0176,-94.851568 C 582.21404,15.095877 570.43419,4.0470939 552.44139,1.0080669 548.67546,0.37199186 544.76695,0.03892686 540.77733,0.00611286 Z m -190.62891,0.142578 c -3.63769,0.04984 -7.32588,0.319543 -9.48437,0.785157 C 325.9139,4.1156429 313.73549,13.634442 307.08985,27.177988 c -4.72756,9.634564 -5.30078,13.73741 -5.30078,38 0,17.437473 0.33185,23.307183 1.60547,28.443363 4.61854,18.625439 20.59649,33.242789 39.56445,36.193359 10.20302,1.58713 19.35996,0.18799 28.81641,-4.40235 5.98515,-2.90531 9.5519,-5.56735 14.45898,-10.79101 6.23429,-6.6365 10.17004,-14.24994 11.98047,-23.175779 0.72163,-3.55761 0.87416,-5.60098 0.83203,-17.60156 0.10884,-9.858878 0.0293,-22.180049 -0.24805,-28.013679 -0.1352,-5.488031 -0.37081,-6.869272 -0.91796,-8.935547 -2.24459,-8.476799 -6.256,-15.565358 -12.45899,-22.015625 -7.06142,-7.3429191 -15.65511,-12.0192651 -26.0918,-14.20117214 -1.9574,-0.40922 -5.54395,-0.57914 -9.18164,-0.529297 z m 93.29493,4.29492204 c -1.37143,-0.09159 -2.62606,0.406243 -3.9375,1.509766 -0.7503,0.631332 -1.28139,0.866335 -1.66407,2.060547 l -0.28906,0.289062 -0.002,1.027344 c -0.72307,4.5265981 -0.66323,17.1452621 -0.65625,57.9453091 0.009,55.279319 0.0396,57.298699 0.85547,59.095709 0.56724,1.24944 1.40265,2.16373 2.54492,2.7832 3.21555,1.74381 7.04873,0.56493 8.70117,-2.67578 0.72808,-1.42772 0.77734,-5.17327 0.77734,-59.308589 8e-4,-65.5709341 0.34033,-59.8968491 -3.69922,-61.9296931 -0.94293,-0.474516 -1.808,-0.741919 -2.63085,-0.796875 z m -317.75391,0.04297 c -1.79973,0.0198 -3.47752,0.802738 -4.76367,2.267578 l -1.37305,1.566407 V 67.158461 125.9983 l 1.19922,1.42578 c 0.6601,0.78449 1.81119,1.69288 2.55664,2.01758 2.56063,1.11534 5.28093,0.45137 7.35547,-1.79687 l 1.11133,-1.20508 0.12304,-58.296879 c 0.0679,-32.063669 0.0176,-58.7325101 -0.11133,-59.2636701 -0.40873,-1.683569 -2.44194,-3.662706 -4.26757,-4.154297 -0.61723,-0.1662 -1.23017,-0.244881 -1.83008,-0.238281 z m 224.30078,8.2968751 c 3.87094,-0.03274 7.91688,0.416201 10.67383,1.289063 10.71301,3.391786 19.19571,11.01687 23.15234,20.8125 2.63567,6.524924 2.625,6.411676 2.625,30.292968 0,20.073792 -0.0727,22.272612 -0.83008,25.111332 -3.61167,13.536209 -13.90622,23.567989 -27.3125,26.617189 -4.3082,0.97987 -11.76492,0.89278 -16.16601,-0.18946 -12.11978,-2.98026 -21.73333,-11.9131 -25.8125,-23.984369 l -1.30078,-3.84961 c -0.0451,-0.31467 -0.0906,-0.62931 -0.12891,-0.97266 l -0.13672,-20.955078 c -0.0929,-14.24883 0.0239,-22.505022 0.3457,-24.357422 2.51945,-14.50307 14.00602,-26.312247 28.42579,-29.222656 1.88214,-0.379883 4.14227,-0.572155 6.46484,-0.591797 z m 222.98242,49.173828 c 0.0614,-0.0042 0.1007,0.0011 0.11719,0.01758 0.0424,0.04237 0.0761,0.156413 0.10937,0.275391 0.0895,1.528437 0.0988,4.761262 0.0117,8.789064 -0.30038,5.58662 -0.92846,12.23319 -1.62695,15.43359 -3.35128,15.355099 -13.82136,26.451299 -28.11914,29.796879 -13.37281,3.12915 -29.75735,-0.2456 -36.48633,-7.51368 -4.23329,-4.57248 -5.90534,-9.467339 -5.56641,-16.294919 0.44517,-8.9679 5.6055,-14.54249 16.79883,-18.14258 6.21116,-1.99768 10.63817,-2.90287 26.18946,-5.35937 14.41791,-2.27749 19.88432,-3.534086 25.02343,-5.748047 1.6492,-0.710482 3.1189,-1.224637 3.54883,-1.253906 z M 393.04493,119.43771 c -1.23901,-0.0511 -2.49185,0.23285 -3.5625,0.89454 -1.15585,0.71435 -1.83336,0.97999 -2.23633,2.90429 l -0.13867,0.15039 v 0.61914 c -0.009,0.0654 -0.0165,0.15032 -0.0254,0.21875 -0.15841,0.85961 -0.25205,2.60048 -0.3125,5.3711 -0.043,1.68952 -0.068,4.13045 -0.082,6.62305 -0.0186,3.85562 -0.0234,8.80115 -0.0234,15.52148 0,0.0194 0,0.0256 0,0.0449 0,0.0255 0,0.033 0,0.0586 0,17.25298 -0.0313,24.52207 0.44336,27.89257 v 0.65625 l 0.14258,0.14258 c 0.40113,1.91626 1.07375,2.18824 2.21289,2.88281 1.70226,1.03793 4.72912,1.13768 6.51367,0.21485 0.69759,-0.36074 1.68674,-1.33484 2.19922,-2.16406 0.92028,-1.48922 0.93164,-1.85183 0.93164,-29.625 0,-27.41489 -0.021,-28.15303 -0.89453,-29.56641 -1.07558,-1.74033 -3.10296,-2.75469 -5.16797,-2.83985 z"
  />
</svg>
