<svg viewBox="0 0 200 300">
  <path
    fill="#ffffff"
    d="m 177.24924,138.08466 c 0,0 5.40254,-9.8517 9.8517,-4.44915 4.44915,5.40254 -3.81356,42.26694 -5.72034,46.3983 -1.90678,4.13136 -5.72211,12.45032 -14.93733,4.31838 -3.49488,19.19857 -9.21522,30.63925 -9.21522,30.63925 l -40.04237,52.11864 -40.677967,0.3178 -8.89831,-7.30932 -19.0678,-44.17373 -6.80773,-15.34697 c 0,0 -10.428411,-17.57089 -6.539723,-40.90303 1.74788,-10.48729 -0.635594,-15.25424 -3.177967,-16.20763 -2.542372,-0.95339 2.072673,-12.65014 2.072673,-12.65014 0,0 0.768206,-13.37243 3.012073,-27.71002 2.243867,-14.337593 13.983054,-41.94916 13.983054,-41.94916 0,0 86.440687,-2.224576 87.711867,-2.224576 1.27119,0 27.01271,26.694913 27.01271,26.694913 0,0 6.03814,35.275433 6.67373,36.864413 0.6356,1.58899 0.3178,21.61016 0.3178,21.61016 z"
  />
  <path
    fill="#000000"
    d="m 70.896673,212.09985 c -0.74312,-0.43561 -2.99752,1.64101 -10.89864,7.15915 -2.70558,1.88957 -3.7985,11.08558 -3.7985,11.08558 0,0 12.71079,-7.34343 19.59619,-8.10876 6.055333,-0.54449 10.810363,0.71911 18.244723,-1.18253 8.158404,1.57617 14.492704,2.4519 21.285524,6.08157 4.20399,2.24636 11.14955,8.95344 11.14955,8.95344 0,0 -0.30411,-9.56224 -3.87694,-12.65794 -6.42364,-5.5658 -12.70426,-6.81614 -19.10638,-11.24004 -3.41019,-2.35645 -12.830394,-3.30018 -12.830394,-3.30018 0,0 -2.7711,3.39876 -4.47672,4.05438 -4.01074,1.54172 -6.618483,2.15896 -10.389363,2.0272 -1.89176,-0.0661 -4.89905,-2.87187 -4.89905,-2.87187 z M 42.333403,130.5327 c -2.880423,1.35118 -9.272855,3.25193 -11.586672,6.68881 4.922253,3.03561 9.576452,3.50741 15.349602,3.86417 -20.209297,-0.33858 -34.495249,5.46824 -34.495249,5.46824 l 0.844862,5.74466 2.365222,4.22237 c 0,0 5.687731,19.29609 12.162888,24.15835 12.355255,9.27769 39.402097,4.96185 42.474727,2.17445 3.37628,-8.52016 4.89207,-18.55677 6.69074,-25.44317 0.53206,-2.03702 10.992363,-1.89391 11.586683,-0.47889 5.64231,13.43413 10.62054,21.27409 15.289264,25.92206 14.98955,5.1278 40.73567,4.61766 53.86867,-2.85188 6.02796,-6.28945 8.78344,-30.23788 8.78344,-30.23788 0,0 0.87572,-1.66371 1.68973,-1.85907 3.73444,-0.89621 9.96702,-5.40596 9.96702,-5.40596 0,0 1.02435,-6.20154 0.33872,-8.61407 -3.15472,1.35837 -8.38173,5.88392 -11.65674,7.09372 -6.62298,-1.9744 -45.17041,-9.92217 -76.526154,3.54881 -4.05478,1.742 -13.367833,1.56289 -17.109413,0.57038 -11.45322,-8.55125 -22.90964,-11.51796 -30.03734,-14.5651 z m 95.942357,9.40054 c 7.47504,-0.0289 13.55891,0.51563 16.58187,1.58849 4.73145,1.6792 5.51248,4.76878 5.49551,8.00478 -0.0385,7.32928 0.38702,16.61638 -3.34442,23.65027 -1.86272,3.51132 -4.95853,7.148 -8.8399,8.00477 -11.28448,2.49091 -34.15384,3.13247 -38.94149,1.19331 -4.78765,-1.93914 -7.53809,-7.31771 -8.58876,-9.23116 -1.050664,-1.91346 -7.377694,-14.55646 -8.014514,-18.24239 -0.5068,-2.93336 -0.62549,-8.40553 4.4404,-9.8152 12.434664,-3.46012 28.752934,-5.10466 41.211304,-5.15287 z m -91.774517,3.54881 c 7.60617,-0.0129 15.27176,0.9214 21.10207,3.74738 2.3801,1.15363 3.48109,4.37745 3.71622,7.01195 0.63701,7.13741 -0.97493,16.83589 -2.48592,21.56343 -1.51099,4.72755 -3.2008,5.30789 -7.56677,6.68882 -4.36595,1.38092 -19.45214,1.97975 -28.211343,-1.47755 -2.806649,-1.1078 -5.257629,-3.31441 -6.926306,-5.82837 -4.678714,-7.04877 -6.806958,-15.67598 -7.518096,-24.24207 -0.250956,-3.0229 0.710513,-4.28848 2.873307,-4.73044 5.556064,-1.13539 15.237485,-2.71659 25.016838,-2.73315 z M 153.54229,76.366297 c -0.44138,9.57428 -2.32944,13.94322 -3.34469,20.06817 16.54128,9.030723 16.35212,25.895053 18.63474,40.614163 3.19694,20.61507 -7.64503,62.11578 -7.64503,62.11578 0,0 -17.57278,19.85735 -28.191,29.14663 -4.00571,12.44458 -7.31153,26.86916 -18.63474,31.05789 -5.19613,1.92218 -12.77004,-1.5898 -15.767854,-5.25594 -2.99783,-3.66616 -1.58804,-9.09616 -1.43344,-11.70644 0.1546,-2.61029 -14.21497,-3.31285 -14.33443,-0.71673 -0.11945,2.59615 0.95272,9.9015 -1.911243,13.3788 -2.46576,2.99379 -7.11696,3.6115 -10.98973,3.8225 -2.82492,0.15392 -9.99504,-14.98936 -12.90097,-23.41286 -1.94692,-5.64364 -3.82251,-16.24567 -3.82251,-16.24567 l -11.46752,-18.63473 c 0,0 3.06616,19.40505 7.1672,28.191 5.31595,11.38873 14.1067,28.3886 19.59036,38.70291 13.950473,7.78319 32.968917,10.88919 48.737017,4.77814 11.70668,-9.45574 29.60045,-27.00507 41.56978,-45.39231 5.7071,-13.02592 7.64504,-42.52541 7.64504,-42.52541 0,0 3.19459,-23.0443 6.68939,-37.74728 3.4948,-14.70299 12.23483,-46.969063 -2.44705,-74.370007 C 164.95716,49.564069 136.84913,29.31677 116.75064,29.062736 96.652146,28.808702 85.130026,20.327128 85.214916,27.151479 74.326943,22.86253 70.794043,28.681302 72.313943,30.496175 60.362523,30.261066 56.285573,41.66766 47.945453,46.741841 c -4.5714,2.781266 -2.16795,6.125951 -4.58023,8.054919 -6.447536,5.155749 -3.693845,9.165233 -4.976046,13.924514 -6.036736,4.898598 -2.389078,12.900973 -2.389078,12.900973 l 3.344697,7.1672 -7.645016,21.023813 2.389076,21.0238 6.689407,-43.003243 c 0,0 9.28666,-14.09062 18.63471,-14.812222 26.661253,-2.058061 28.002023,-8.650273 45.392317,-9.317367 17.39029,-0.667093 29.89751,5.840184 48.737,12.662069 z m -52.5756,63.937173 c 4.39225,-0.50679 26.14699,-8.79426 36.15159,-11.31848 6.14461,-1.55032 18.5826,5.15244 18.5826,5.15244 0,0 -8.31964,-11.42612 -25.50883,-15.62627 -15.78157,6.59017 -17.89994,10.01503 -35.306934,15.54181 -2.77067,0.87969 1.68932,6.7573 6.081574,6.2505 z"
  />
</svg>
